<svg width="42" height="42" viewBox="0 0 42 42" fill="none" xmlns="http://www.w3.org/2000/svg">
<path d="M41 21C41 32.0457 32.0457 41 21 41C9.9543 41 1 32.0457 1 21C1 9.9543 9.9543 1 21 1C32.0457 1 41 9.9543 41 21Z" stroke="#0C0C34" stroke-width="2"/>
<path d="M33 11H9C8.73478 11 8.48043 11.1054 8.29289 11.2929C8.10536 11.4804 8 11.7348 8 12V29C8 29.5304 8.21071 30.0391 8.58579 30.4142C8.96086 30.7893 9.46957 31 10 31H32C32.5304 31 33.0391 30.7893 33.4142 30.4142C33.7893 30.0391 34 29.5304 34 29V12C34 11.7348 33.8946 11.4804 33.7071 11.2929C33.5196 11.1054 33.2652 11 33 11ZM21 21.6437L11.5712 13H30.4287L21 21.6437ZM17.3387 21L10 27.7262V14.2738L17.3387 21ZM18.8188 22.3563L20.3188 23.7375C20.5032 23.9069 20.7446 24.0008 20.995 24.0008C21.2454 24.0008 21.4868 23.9069 21.6712 23.7375L23.1712 22.3563L30.4212 29H11.5712L18.8188 22.3563ZM24.6612 21L32 14.2725V27.7275L24.6612 21Z" fill="#0C0C34"/>
</svg>
