<svg width="42" height="42" viewBox="0 0 42 42" fill="none" xmlns="http://www.w3.org/2000/svg">
<path d="M41 21C41 32.0457 32.0457 41 21 41C9.95431 41 1 32.0457 1 21C1 9.95431 9.95431 1 21 1C32.0457 1 41 9.95431 41 21Z" stroke="#0C0C34" stroke-width="2"/>
<path d="M33.865 30.5C31.9612 27.2088 29.0275 24.8488 25.6037 23.73C27.2973 22.7218 28.613 21.1856 29.349 19.3573C30.0849 17.5289 30.2004 15.5095 29.6775 13.6092C29.1547 11.7089 28.0226 10.0328 26.4549 8.83817C24.8873 7.64358 22.9709 6.99661 21 6.99661C19.0291 6.99661 17.1126 7.64358 15.545 8.83817C13.9774 10.0328 12.8452 11.7089 12.3224 13.6092C11.7996 15.5095 11.915 17.5289 12.651 19.3573C13.3869 21.1856 14.7027 22.7218 16.3962 23.73C12.9725 24.8475 10.0387 27.2075 8.13497 30.5C8.06516 30.6138 8.01885 30.7405 7.99878 30.8725C7.97872 31.0046 7.98529 31.1393 8.01813 31.2687C8.05096 31.3981 8.10939 31.5197 8.18996 31.6262C8.27053 31.7327 8.37162 31.8219 8.48725 31.8887C8.60289 31.9555 8.73073 31.9985 8.86323 32.0151C8.99574 32.0317 9.13022 32.0215 9.25875 31.9853C9.38728 31.9491 9.50725 31.8875 9.61158 31.8041C9.71592 31.7208 9.8025 31.6174 9.86622 31.5C12.2212 27.43 16.3837 25 21 25C25.6162 25 29.7787 27.43 32.1337 31.5C32.1974 31.6174 32.284 31.7208 32.3884 31.8041C32.4927 31.8875 32.6127 31.9491 32.7412 31.9853C32.8697 32.0215 33.0042 32.0317 33.1367 32.0151C33.2692 31.9985 33.3971 31.9555 33.5127 31.8887C33.6283 31.8219 33.7294 31.7327 33.81 31.6262C33.8906 31.5197 33.949 31.3981 33.9818 31.2687C34.0147 31.1393 34.0212 31.0046 34.0012 30.8725C33.9811 30.7405 33.9348 30.6138 33.865 30.5ZM14 16C14 14.6155 14.4105 13.2622 15.1797 12.111C15.9489 10.9599 17.0421 10.0627 18.3212 9.53286C19.6003 9.00304 21.0077 8.86442 22.3656 9.13452C23.7235 9.40461 24.9708 10.0713 25.9497 11.0503C26.9287 12.0292 27.5954 13.2765 27.8655 14.6344C28.1356 15.9922 27.9969 17.3997 27.4671 18.6788C26.9373 19.9579 26.0401 21.0511 24.889 21.8203C23.7378 22.5895 22.3844 23 21 23C19.1441 22.998 17.3647 22.2599 16.0524 20.9476C14.7401 19.6352 14.002 17.8559 14 16Z" fill="#0C0C34"/>
</svg>
