<svg width="30" height="30" viewBox="0 0 30 30" fill="none" xmlns="http://www.w3.org/2000/svg">
<path d="M22.5 7H20C20 4.2375 17.7625 2 15 2C12.2375 2 10 4.2375 10 7H7.5C6.125 7 5 8.125 5 9.5V24.5C5 25.875 6.125 27 7.5 27H22.5C23.875 27 25 25.875 25 24.5V9.5C25 8.125 23.875 7 22.5 7ZM12.5 12C12.5 12.6875 11.9375 13.25 11.25 13.25C10.5625 13.25 10 12.6875 10 12V9.5H12.5V12ZM15 4.5C16.375 4.5 17.5 5.625 17.5 7H12.5C12.5 5.625 13.625 4.5 15 4.5ZM20 12C20 12.6875 19.4375 13.25 18.75 13.25C18.0625 13.25 17.5 12.6875 17.5 12V9.5H20V12Z" fill="#4D3E6B"/>
</svg>
