<svg width="28" height="28" viewBox="0 0 28 28" fill="none" xmlns="http://www.w3.org/2000/svg">
<path d="M22.1667 4.66667H21V3.5C21 2.85833 20.475 2.33333 19.8333 2.33333C19.1917 2.33333 18.6667 2.85833 18.6667 3.5V4.66667H9.33333V3.5C9.33333 2.85833 8.80833 2.33333 8.16667 2.33333C7.525 2.33333 7 2.85833 7 3.5V4.66667H5.83333C4.53833 4.66667 3.51167 5.71667 3.51167 7L3.5 23.3333C3.5 24.6167 4.53833 25.6667 5.83333 25.6667H22.1667C23.45 25.6667 24.5 24.6167 24.5 23.3333V7C24.5 5.71667 23.45 4.66667 22.1667 4.66667ZM22.1667 22.1667C22.1667 22.8083 21.6417 23.3333 21 23.3333H7C6.35833 23.3333 5.83333 22.8083 5.83333 22.1667V10.5H22.1667V22.1667ZM8.16667 12.8333H10.5V15.1667H8.16667V12.8333ZM12.8333 12.8333H15.1667V15.1667H12.8333V12.8333ZM17.5 12.8333H19.8333V15.1667H17.5V12.8333Z" fill="#4D3E6B"/>
</svg>
