<svg width="42" height="42" viewBox="0 0 42 42" fill="none" xmlns="http://www.w3.org/2000/svg">
<circle cx="20.9556" cy="20.9556" r="19.9556" stroke="#0C0C34" stroke-width="2"/>
<path d="M32.3538 15.9713L22.3538 6.53626C22.3489 6.532 22.3443 6.5274 22.34 6.52251C21.9718 6.18768 21.492 6.00214 20.9944 6.00214C20.4967 6.00214 20.0169 6.18768 19.6488 6.52251L19.635 6.53626L9.64625 15.9713C9.4425 16.1586 9.27985 16.3862 9.16861 16.6397C9.05737 16.8932 8.99996 17.167 9 17.4438V29C9 29.5304 9.21071 30.0391 9.58579 30.4142C9.96086 30.7893 10.4696 31 11 31H17C17.5304 31 18.0391 30.7893 18.4142 30.4142C18.7893 30.0391 19 29.5304 19 29V23H23V29C23 29.5304 23.2107 30.0391 23.5858 30.4142C23.9609 30.7893 24.4696 31 25 31H31C31.5304 31 32.0391 30.7893 32.4142 30.4142C32.7893 30.0391 33 29.5304 33 29V17.4438C33 17.167 32.9426 16.8932 32.8314 16.6397C32.7201 16.3862 32.5575 16.1586 32.3538 15.9713ZM31 29H25V23C25 22.4696 24.7893 21.9609 24.4142 21.5858C24.0391 21.2107 23.5304 21 23 21H19C18.4696 21 17.9609 21.2107 17.5858 21.5858C17.2107 21.9609 17 22.4696 17 23V29H11V17.4438L11.0138 17.4313L21 8.00001L30.9875 17.4288L31.0012 17.4413L31 29Z" fill="#0C0C34"/>
</svg>
